<?xml version="1.0" encoding="UTF-8"?><svg xmlns="http://www.w3.org/2000/svg" version="1.1" width="322" height="71"><defs><style>path{fill:#040000;stroke:none;}</style></defs><path d="M0.233,12.915c0.465-0.078,0.761-0.117,0.888-0.117c0.878,0,2.32,0.053,4.33,0.157c1.059,0.024,1.78,0.036,2.167,0.036c0.567,0,1.766-0.05,3.596-0.153l6.574-0.388c1.727-0.154,3.738-0.232,6.031-0.232c4.049,0,7.27,0.576,9.667,1.721c2.397,1.145,4.248,2.94,5.549,5.387c1.302,2.445,1.953,4.878,1.953,7.296c0,4.043-1.418,7.529-4.254,10.464c-2.835,2.937-6.651,4.404-11.446,4.404c-1.34,0-2.46-0.137-3.363-0.405c-0.902-0.271-1.935-0.794-3.093-1.567c-0.489-0.335-0.786-0.682-0.889-1.043c0.103-0.18,0.244-0.311,0.424-0.387c0.362,0,0.735,0.076,1.122,0.232c0.876,0.309,1.985,0.465,3.326,0.465c2.034,0,3.963-0.502,5.778-1.506c1.818-1.003,3.19-2.432,4.119-4.288c0.928-1.85,1.392-3.806,1.392-5.865c0-2.008-0.488-3.958-1.465-5.849c-0.978-1.892-2.264-3.404-3.86-4.537c-0.9-0.643-2.283-1.184-4.148-1.621c-1.865-0.437-3.313-0.656-4.341-0.656c-3.191,0-5.08,0.23-5.671,0.695l-0.04,0.541l0.115,4.366l-0.037,0.772c-0.051,0.696-0.078,1.764-0.078,3.208c0,5.254,0.078,8.524,0.231,9.812v2.163l0.502,17.657c0,0.259-0.032,0.733-0.096,1.43c-0.063,0.694-0.097,1.301-0.097,1.814c0,1.238,0.104,2.179,0.309,2.821c0.619,0.18,2.424,0.604,5.415,1.275c1.392,0.336,2.151,0.529,2.28,0.58c0.206,0.077,0.387,0.246,0.542,0.503c-0.103,0.386-0.239,0.638-0.406,0.756c-0.167,0.114-0.496,0.172-0.986,0.172c-0.31,0-1.031-0.063-2.165-0.194c-2.217-0.232-3.958-0.348-5.221-0.348l-6.805,0.271l-4.06-0.117c-0.257,0-1.004,0.025-2.242,0.078l-0.039-1.006l5.026-0.964c0.825-0.233,1.328-0.466,1.509-0.698c0.257-0.357,0.387-1.066,0.387-2.126c0-0.229,0.011-0.731,0.036-1.504c0.028-0.543,0.04-1.289,0.04-2.243c0-3.037-0.127-9.517-0.386-19.432c-0.103-4.637-0.155-9.351-0.155-14.141v-0.657c0-1.854-0.284-3.027-0.851-3.517c-0.952-0.848-3.337-1.544-7.153-2.084C0.067,14.062,0,13.83,0,13.649C0,13.442,0.078,13.198,0.233,12.915"/><path d="M46.036,41.036l0.042-1.226c1.798-0.526,2.767-0.831,2.906-0.916c0.996-0.444,2.039-1.122,3.133-2.041c1.093-0.915,2.013-1.942,2.759-3.082c0.334-0.056,0.598-0.084,0.79-0.084l0.498,0.042c0.111,1.33,0.167,2.299,0.167,2.906c0,0.14-0.026,0.762-0.084,1.867v2.202l0.043,11.954l-0.125,12.661c-0.028,1.024,0.14,1.738,0.498,2.139c0.36,0.4,1.425,0.851,3.198,1.348c1.106,0.306,1.937,0.567,2.491,0.789c0.082,0.193,0.124,0.36,0.124,0.499c0,0.166-0.07,0.373-0.208,0.623c-1.08-0.029-2.462-0.099-4.152-0.208c-2.297-0.193-3.819-0.291-4.566-0.291c-0.358,0-2.573,0.069-6.642,0.207c-0.83,0.029-1.632,0.099-2.408,0.208c-0.138,0-0.36-0.042-0.665-0.124c-0.139-0.193-0.208-0.359-0.208-0.499c0-0.387,0.264-0.691,0.79-0.914c0.11-0.054,1.522-0.371,4.233-0.952c0.886-0.165,1.466-0.442,1.743-0.829c0.471-0.581,0.707-1.507,0.707-2.778c0.054-2.125,0.083-7.957,0.083-17.489c0-1.908-0.083-3.095-0.249-3.564c-0.138-0.331-0.506-0.712-1.1-1.142C49.24,41.912,47.974,41.477,46.036,41.036M49.522,19.491c0-0.913,0.354-1.7,1.059-2.366c0.705-0.663,1.557-0.994,2.553-0.994c1.025,0,1.924,0.373,2.699,1.12c0.774,0.748,1.162,1.55,1.162,2.407c0,0.858-0.533,3.38-1.308,4.141c-0.775,0.76-1.528-0.57-2.553-0.57c-1.023,0-1.881-0.347-2.573-1.038C49.869,21.499,49.522,20.599,49.522,19.491"/><path d="M62.091,32.264c-0.074-0.366-0.119-0.675-0.131-0.932l-0.029-0.551c0.436-0.136,0.917-0.219,1.442-0.247l1.534-0.081c2.381-0.041,3.874-0.077,4.483-0.109c1.908-0.1,3.84-0.228,5.799-0.388c1.215-0.089,1.96-0.142,2.237-0.158l0.994-0.052c0.214,0.378,0.326,0.663,0.334,0.856c0.009,0.14-0.036,0.334-0.132,0.588l-0.614,0.115c-1.994,0.302-3.244,0.62-3.753,0.954c-0.214,0.151-0.316,0.339-0.304,0.562c0.024,0.446,0.391,1.086,1.099,1.917c3.437,4.03,5.764,6.62,6.982,7.776c2.438-3.617,3.882-5.933,4.334-6.945c0.45-1.011,0.662-1.795,0.633-2.351c-0.035-0.64-0.311-1.162-0.831-1.567c-0.52-0.403-1.755-0.695-3.704-0.872c-0.239-0.318-0.364-0.589-0.375-0.811l0.103-0.421l1.075-0.098c0.276-0.013,0.761-0.025,1.453-0.033c1.194,0.02,2.383,0,3.573-0.063c0.606-0.034,1.657-0.108,3.147-0.227c1.489-0.121,2.623-0.201,3.395-0.242l1.907-0.099c0.367,0.146,0.559,0.358,0.573,0.635c0.006,0.137-0.011,0.319-0.055,0.541c-0.435,0.134-0.968,0.274-1.598,0.418c-1.481,0.301-2.904,0.921-4.268,1.857c-1.017,0.696-1.999,1.767-2.95,3.212l-5.438,8.246l6.378,7.226c2.945,3.584,4.747,5.689,5.404,6.32c0.658,0.63,1.359,1.132,2.101,1.508c0.741,0.378,1.816,0.706,3.219,0.992c0.046,0.332,0.076,0.621,0.089,0.87c0.009,0.193-0.033,0.46-0.125,0.796c-0.5,0.025-3.025,0.09-7.575,0.188c-0.278,0.015-1.606,0.114-3.987,0.293c-0.747,0.067-1.466,0.117-2.158,0.154c-0.636,0.033-1.429,0.048-2.375,0.042l0.063-1.25c0.41-0.106,0.863-0.226,1.356-0.362c1.403-0.35,2.398-0.775,2.983-1.276c0.346-0.323,0.511-0.664,0.491-1.022c-0.031-0.606-2.031-3.06-5.998-7.359l-2.57-2.789c-1.11,1.223-2.321,2.935-3.63,5.138c-0.742,1.285-1.35,2.248-1.82,2.879c-0.881,1.146-1.303,2.089-1.266,2.826c0.015,0.246,0.193,0.491,0.539,0.733s1.33,0.501,2.949,0.772c1.09,0.16,1.859,0.3,2.306,0.412c0.103,0.365,0.159,0.646,0.169,0.845c0.01,0.17-0.005,0.443-0.04,0.812c-2.133,0.003-4.209,0.056-6.225,0.162c-2.544,0.134-4.386,0.265-5.53,0.393c-1.143,0.129-1.854,0.201-2.131,0.216c-0.331,0.019-0.857,0.019-1.578,0c-0.131-0.382-0.202-0.669-0.212-0.863l0.055-0.541c0.377-0.214,0.854-0.363,1.433-0.45c1.84-0.291,3.448-1.065,4.824-2.328c1.374-1.262,4.349-5.376,8.918-12.344L66.983,33.586c-0.176-0.158-0.39-0.311-0.648-0.464c-0.455-0.225-1.06-0.387-1.814-0.487C63.376,32.474,62.566,32.35,62.091,32.264"/><path d="M130.971,44.192l-16.646,0.121l-3.155-0.004c-1.273,0-2.574,0.058-3.902,0.172c-0.249,0.831-0.374,1.399-0.374,1.701l0.042,0.416v0.415l-0.042,2.036c0,1.687,0.532,3.756,1.599,6.204c1.066,2.451,2.587,4.317,4.566,5.604c1.979,1.286,4.449,1.971,7.409,2.055c1.579-0.084,2.837-0.278,3.778-0.58c0.942-0.306,2.269-1.012,3.986-2.119l2.987-2.448l0.25,1.66c0,0.193-0.014,0.401-0.042,0.623c-1.244,1.577-2.823,2.961-4.733,4.151c-1.908,1.189-3.845,2.062-5.812,2.615c-0.94,0.248-2.49,0.374-4.647,0.374c-1.965,0-3.903-0.402-5.811-1.204c-2.825-1.218-5.045-3.176-6.662-5.875c-1.62-2.697-2.429-5.97-2.429-9.816c0-1.219,0.229-2.782,0.684-4.691c0.457-1.909,1.281-3.944,2.47-6.102c0.803-1.468,1.784-2.671,2.948-3.611c1.661-1.329,3.113-2.254,4.358-2.781c1.798-0.748,3.888-1.122,6.269-1.122c2.574,0,4.675,0.471,6.31,1.412c2.213,1.245,3.867,2.851,4.959,4.815c1.093,1.964,1.641,3.764,1.641,5.397V44.192 M107.807,42.697h1.952c1.412,0,5.618-0.222,12.62-0.663c1.107-0.057,1.785-0.167,2.032-0.333c0.5-0.526,0.748-0.996,0.748-1.411c0-0.858-0.277-1.833-0.829-2.927c-0.555-1.093-1.405-1.938-2.553-2.532c-1.149-0.595-2.484-0.893-4.007-0.893c-3.21,0-5.782,1.205-7.72,3.613C108.555,39.376,107.807,41.093,107.807,42.697"/><path d="M133.961,14.677v-0.912c0.776-0.25,1.633-0.512,2.574-0.789c1.391-0.444,3.448-1.122,6.176-2.036h1.959c0,1.33,0,2.093,0,2.286c0,22.737-0.069,36.295-0.208,40.67c-0.082,2.575-0.124,3.947-0.124,4.114c0,3.101,0.124,4.831,0.374,5.191c0.332,0.5,1.35,0.846,3.051,1.039c1.7,0.193,2.704,0.388,3.01,0.582c0.221,0.109,0.331,0.303,0.331,0.58c0,0.306-0.063,0.519-0.186,0.643c-0.125,0.125-0.353,0.188-0.686,0.188c-0.195,0-1.646-0.046-4.359-0.142l-5.438-0.19l-6.974,0.332c-0.443,0.028-0.774-0.058-0.996-0.255c-0.167-0.141-0.25-0.341-0.25-0.596c0-0.283,0.091-0.489,0.271-0.618c0.18-0.128,1.176-0.344,2.989-0.648c1.812-0.303,2.85-0.561,3.113-0.768c0.262-0.208,0.435-0.671,0.519-1.391c0.11-0.995,0.166-3.806,0.166-8.426l-0.042-9.548l0.127-9.88l-0.043-9.879l0.124-4.857c0-0.968-0.151-1.667-0.456-2.096s-0.955-0.851-1.95-1.266C135.539,15.399,134.516,14.954,133.961,14.677"/><path d="M208.173,22.417l0.419,5.819c0.155,1.761,0.229,2.96,0.229,3.597l-1.071,0.191c-1.709-3.877-3.835-6.786-6.372-8.727c-2.541-1.938-5.646-2.908-9.32-2.908c-4.492,0-7.987,0.549-10.49,1.646c-3.624,1.557-6.722,4.262-9.299,8.115c-2.577,3.854-3.866,8.498-3.866,13.931c0,3.14,0.471,5.959,1.416,8.459c0.944,2.503,2.278,4.829,3.999,6.988c1.724,2.153,3.759,4.023,6.106,5.607c1.531,1.045,3.355,1.836,5.475,2.373c1.198,0.279,2.984,0.422,5.355,0.422c1.531,0,3.229-0.221,5.092-0.652c1.865-0.436,3.268-1.016,4.212-1.745c0.945-0.726,1.588-1.547,1.932-2.466c0.346-0.919,0.517-2.705,0.517-5.358c0-4.414-0.295-6.985-0.881-7.712c-0.586-0.729-2.437-1.206-5.548-1.437l-1.532-0.114l-1.034,0.039c-0.153-0.025-0.355-0.065-0.611-0.116l-0.575-0.956c0-0.129,0.089-0.294,0.27-0.498c1.325-0.205,4.209-0.306,8.648-0.306c0.997,0,2.616,0.025,4.859,0.077l3.946,0.151l3.559-0.038c0.69,0,1.519,0.026,2.487,0.077c0.179,0.025,0.293,0.069,0.345,0.134c0.052,0.063,0.076,0.172,0.076,0.327c0,0.278-0.063,0.636-0.191,1.069c-1.07,0.231-1.901,0.344-2.487,0.344l-2.489-0.037c-0.842,0-1.518,0.293-2.027,0.881c-0.256,0.278-0.383,1.237-0.383,2.871l0.037,5.014c0,3.445-0.137,5.64-0.418,6.581c-0.155,0.565-0.475,1.067-0.958,1.515c-0.485,0.445-1.506,0.976-3.062,1.587c-2.221,0.894-4.236,1.495-6.048,1.801c-3.367,0.586-6.623,0.877-9.76,0.877c-5.053,0-9.194-0.643-12.42-1.931c-3.23-1.287-6.012-3.083-8.345-5.378c-2.336-2.298-4-4.62-4.996-6.966c-1.507-3.445-2.257-6.954-2.257-10.526c0-4.465,1.179-8.836,3.54-13.11c2.359-4.272,6.167-7.75,11.425-10.43c3.701-1.888,8.728-2.833,15.079-2.833c4.39,0,7.981,0.383,10.776,1.149C204.324,20.58,206.538,21.447,208.173,22.417"/><path d="M217.981,59.779l-0.118-0.551c0.018-0.193,0.167-0.473,0.447-0.837l2.485-0.283l3.486-0.319c0.287-0.112,0.496-0.289,0.631-0.527c0.195-0.342,0.37-1.395,0.524-3.155c0.819-9.358,1.236-14.764,1.252-16.22c0.017-1.453-0.153-2.393-0.504-2.81c-0.354-0.418-1.317-0.808-2.898-1.169c-0.926-0.22-1.654-0.462-2.187-0.731l0.276-1.247c2.999-0.936,5.031-1.789,6.099-2.558c1.488-1.124,2.802-2.653,3.943-4.586l1.403,0.166c0.045,1.393-0.141,4.46-0.556,9.202l-0.104,0.699c-0.013,0.166-0.008,0.43,0.015,0.793c1.214-1.811,2.677-3.448,4.389-4.909l1.035-0.868c0.423-0.406,0.825-0.719,1.206-0.937c2.031-0.988,3.517-1.441,4.454-1.359c1.213,0.106,2.168,0.598,2.869,1.48c0.701,0.88,0.999,1.913,0.896,3.099c-0.082,0.938-0.422,1.645-1.019,2.119c-0.804,0.625-1.69,0.895-2.655,0.808c-0.44-0.037-1.287-0.347-2.543-0.929s-2.089-0.891-2.502-0.927c-0.772-0.069-1.319,0.01-1.646,0.23c-0.824,0.54-1.87,1.7-3.138,3.478c-0.979,1.33-1.518,2.589-1.621,3.774l-0.393,6.854l-0.635,8.214c0,0.948,0.059,1.566,0.172,1.854c0.092,0.204,0.348,0.463,0.767,0.777c2.954,0.509,4.702,0.844,5.244,1.002c0.383,0.061,0.671,0.114,0.86,0.158c1.184,0.132,1.996,0.371,2.438,0.715c0.234,0.161,0.342,0.378,0.318,0.652c-0.015,0.166-0.146,0.378-0.389,0.633C232.84,60.649,225.462,60.281,217.981,59.779"/><path d="M250.234,24.906l0.043-1.225c1.798-0.527,2.767-0.833,2.904-0.917c0.996-0.444,2.042-1.123,3.133-2.041c1.095-0.916,2.014-1.943,2.763-3.082c0.331-0.056,0.594-0.083,0.788-0.083l0.497,0.041c0.111,1.328,0.167,2.298,0.167,2.907c0,0.139-0.027,0.761-0.083,1.868v2.199l0.041,11.954l-0.125,12.661c-0.027,1.025,0.14,1.738,0.499,2.139c0.358,0.4,1.424,0.851,3.196,1.349c1.105,0.305,1.937,0.566,2.49,0.788c0.083,0.193,0.125,0.36,0.125,0.499c0,0.166-0.071,0.374-0.208,0.623c-1.08-0.028-2.463-0.098-4.15-0.207c-2.298-0.193-3.819-0.292-4.567-0.292c-0.358,0-2.572,0.069-6.642,0.208c-0.828,0.028-1.631,0.098-2.407,0.207c-0.139,0-0.359-0.042-0.664-0.123c-0.139-0.193-0.208-0.36-0.208-0.5c0-0.386,0.263-0.691,0.79-0.912c0.109-0.056,1.521-0.373,4.232-0.952c0.886-0.166,1.467-0.444,1.745-0.83c0.47-0.579,0.706-1.507,0.706-2.778c0.054-2.126,0.082-7.956,0.082-17.49c0-1.908-0.082-3.095-0.249-3.565c-0.139-0.331-0.506-0.711-1.101-1.14C253.438,25.784,252.172,25.348,250.234,24.906M253.721,3.361c0-0.914,0.354-1.701,1.06-2.365C255.485,0.332,256.338,0,257.333,0c1.023,0,1.923,0.373,2.698,1.12c0.773,0.748,1.162,1.551,1.162,2.408c0,0.857,0.045,4.429-0.729,5.189c-0.776,0.761-2.107-1.618-3.131-1.618c-1.024,0-1.882-0.345-2.574-1.038C254.068,5.369,253.721,4.469,253.721,3.361"/><path d="M297.026,37.853l0.039-1.167l-0.039-4.71l0.039-8.901c0-2.47-0.27-4.04-0.805-4.713c-0.539-0.669-2.107-1.354-4.713-2.052c-0.188-0.056-0.483-0.135-0.885-0.242v-0.444c0-0.267,0.025-0.563,0.08-0.885c3.651-0.376,6.793-1.007,9.425-1.894l2.054-0.04c0.107,1.826,0.16,3.866,0.16,6.121l-0.16,15.505l0.281,17.478l-0.121,9.304c0,1.908,0.134,2.98,0.403,3.223c0.536,0.538,1.719,0.818,3.544,0.844c0.376,0,0.886,0.026,1.53,0.081v0.726c0,0.188-0.012,0.389-0.04,0.604c-0.834,0.188-1.691,0.361-2.579,0.523l-5.84,1.128c-0.857,0.161-1.543,0.241-2.053,0.241v-3.866c-0.455,0.136-1.167,0.404-2.134,0.805c-4.188,1.772-8.043,2.658-11.56,2.658c-2.119,0-4.282-0.689-6.483-2.073c-2.202-1.381-3.893-3.308-5.075-5.779c-1.183-2.47-1.771-4.993-1.771-7.571c0-2.309,0.39-4.516,1.168-6.625c0.779-2.107,1.798-3.859,3.061-5.255c0.805-0.911,1.947-1.819,3.424-2.719c1.477-0.9,2.698-1.47,3.664-1.71c2.39-0.618,3.986-0.926,4.791-0.926c3.627,0,6.607,0.537,8.943,1.61C296.101,37.479,296.65,37.721,297.026,37.853M297.068,62.744c0.105-1.798,0.159-5.503,0.159-11.117c0-4.752-0.22-7.752-0.662-9c-0.443-1.248-1.546-2.431-3.309-3.544c-1.768-1.112-3.747-1.672-5.94-1.672c-3.073,0-5.683,1.196-7.822,3.586s-3.209,5.919-3.209,10.589c0,4.109,1.156,7.385,3.47,9.828c2.313,2.442,5.195,3.665,8.645,3.665c1.98,0,3.786-0.267,5.418-0.806C295.448,63.737,296.53,63.229,297.068,62.744"/><path d="M321.575,65.217c0,2.095-2.076,5.308-4.171,5.308c-2.094,0-3.414-3.213-3.414-5.308c0-2.093,1.697-3.791,3.792-3.791S321.575,63.124,321.575,65.217"/></svg>